<?xml version="1.0" encoding="UTF-8" standalone="no"?>
<!DOCTYPE svg PUBLIC "-//W3C//DTD SVG 1.1//EN" "http://www.w3.org/Graphics/SVG/1.1/DTD/svg11.dtd">
<svg width="100%" height="100%" viewBox="0 0 384 384" version="1.1" xmlns="http://www.w3.org/2000/svg" xmlns:xlink="http://www.w3.org/1999/xlink" xml:space="preserve" xmlns:serif="http://www.serif.com/" style="fill-rule:evenodd;clip-rule:evenodd;stroke-linejoin:round;stroke-miterlimit:2;">
    <path d="M147.235,322.46L230.12,240.062L266.218,203.884L268.13,201.123L269.604,196.76L269.995,192.423L269.637,187.64L267.838,184.016L265.124,180.557L252.948,167.53L242.78,157.805L233.354,148.044L222.959,137.719L217.256,131.277L215.296,127.912L214.631,124.273L214.644,119.087L215.925,114.011L219.445,108.446L222.864,104.658L228.065,99.293L234.195,92.953L243.927,83.465L249.965,77.805L254.752,73.845L261.127,72.053L268.615,72.274L276.788,77.074L285.146,85.461L305.178,105.388L360.648,160.883L380.236,181.157L381.892,183.335L382.952,186.8L383.226,192.693L382.92,197.033L381.437,200.702L377.371,205.852L357.846,224.968L322.83,260.235L273.043,309.433L228.435,354.942L203.992,378.857L200.257,381.511L196.632,382.981L192.125,383.165L187.078,382.823L183.719,381.776L176.35,375.695L167.198,366.861L159.233,358.665L148.544,347.742L146.466,345.516L144.527,342.197L143.396,339.685L142.888,333.755L143.319,329.42L145.11,324.862L147.235,322.46Z" style="fill:rgb(0,112,243);"/>
    <path d="M58.925,239.952L83.064,216.4L96.062,202.743L133.067,165.474L169.941,128.377L210.06,88.509L234.272,64.29L238.639,59.176L240.836,54.154L241.148,46.105L239.654,41.846L231.348,31.755L221.436,21.967L212.542,13.138L204.962,5.37L199.622,1.422L194.676,0.59L189.337,0.6L186.999,0.945L184.915,1.408L183.03,2.067L180.92,3.095C122.968,59.347 68.228,119.603 7.915,176.718L4.058,180.773L1.983,183.686L0.523,188.774L0.314,195.269L1.451,200.577L3.643,203.67L38.969,239.003L42.201,240.841L45.124,241.919L48.365,242.032L52.615,241.9L56.111,241.284L58.925,239.952Z" style="fill:rgb(192,192,192);"/>
    <path d="M131.566,309.976L145.32,296.635L166.33,275.349L205.221,235.64L239.059,201.501L240.407,198.476L241.12,195.631L241.142,190.51L240.389,186.498L238.319,181.766L235.885,179.088L231.213,174.263L204.377,147.298L201.083,144.864L199.072,143.993L195.041,143.409L192.536,143.363L189.687,143.357L186.932,143.613L184.619,144.17L182.874,144.987L178.875,148.145L148.107,179.095L98.582,229.004L74.797,252.733L72.638,257.22L72.032,261.59L72.052,266.861L73.012,270.385L74.324,273.064L78.15,277.419L102.504,302.251L112.029,310.94L117.033,313.135L121.008,313.17L125.897,312.854L129.289,311.363L131.566,309.976Z" style="fill:rgb(217,217,217);"/>
</svg>
